<svg width="20" height="38" viewBox="0 0 20 38" fill="none" xmlns="http://www.w3.org/2000/svg">
<path d="M19.3329 3.75955C19.4983 3.58452 19.6276 3.37863 19.7134 3.15362C19.7993 2.92862 19.8399 2.68892 19.8331 2.4482C19.8263 2.20747 19.7722 1.97045 19.6737 1.75066C19.5753 1.53087 19.4346 1.33262 19.2596 1.16722C19.0845 1.00182 18.8786 0.872511 18.6536 0.786683C18.4286 0.700854 18.1889 0.660183 17.9482 0.666993C17.7075 0.673803 17.4705 0.727959 17.2507 0.82637C17.0309 0.924781 16.8326 1.06552 16.6672 1.24055L1.08389 17.7405C0.762075 18.0809 0.582764 18.5316 0.582764 19C0.582764 19.4685 0.762075 19.9192 1.08389 20.2596L16.6672 36.7614C16.8315 36.9402 17.0297 37.0847 17.2503 37.1863C17.4709 37.2879 17.7095 37.3447 17.9523 37.3533C18.195 37.3619 18.437 37.3222 18.6643 37.2365C18.8915 37.1508 19.0995 37.0208 19.2761 36.8541C19.4526 36.6873 19.5943 36.4871 19.6929 36.2652C19.7915 36.0432 19.845 35.8039 19.8503 35.561C19.8555 35.3182 19.8125 35.0768 19.7237 34.8507C19.6349 34.6247 19.5021 34.4185 19.3329 34.2442L4.93756 19L19.3329 3.75955Z" fill="#C7C7C7"/>
</svg>
