<svg width="18" height="10" viewBox="0 0 18 10" fill="none" xmlns="http://www.w3.org/2000/svg">
<path d="M15.9279 1.11139C16.0075 1.0342 16.1011 0.97386 16.2034 0.933806C16.3056 0.893753 16.4146 0.874773 16.524 0.877952C16.6334 0.881129 16.7412 0.906403 16.8411 0.952328C16.941 0.998253 17.0311 1.06393 17.1063 1.14561C17.1815 1.22729 17.2402 1.32338 17.2792 1.42838C17.3183 1.53338 17.3367 1.64524 17.3337 1.75758C17.3306 1.86991 17.3059 1.98052 17.2612 2.08309C17.2165 2.18566 17.1525 2.27818 17.0729 2.35537L9.57294 9.62759C9.41822 9.77777 9.21337 9.86145 9.00044 9.86145C8.78752 9.86145 8.58267 9.77777 8.42794 9.62759L0.927107 2.35537C0.845806 2.27869 0.780155 2.18619 0.733969 2.08325C0.68778 1.9803 0.661978 1.86896 0.658058 1.75569C0.654139 1.64242 0.67218 1.52947 0.711136 1.42342C0.75009 1.31737 0.809181 1.22032 0.884975 1.13791C0.960772 1.05551 1.05176 0.989382 1.15266 0.943381C1.25356 0.897382 1.36235 0.872423 1.47272 0.869955C1.58309 0.867487 1.69284 0.887559 1.7956 0.929006C1.89835 0.970452 1.99206 1.03245 2.07127 1.11139L9.00044 7.82921L15.9279 1.11139Z" fill="#272727"/>
</svg>
