<svg width="10" height="20" viewBox="0 0 10 20" fill="none" xmlns="http://www.w3.org/2000/svg">
<path d="M0.333432 2.37965C0.250731 2.29214 0.18608 2.18919 0.143166 2.07669C0.100251 1.96419 0.079915 1.84434 0.0833206 1.72398C0.0867252 1.60362 0.113803 1.4851 0.163009 1.37521C0.212214 1.26531 0.282583 1.16619 0.370098 1.08349C0.457614 1.00079 0.560561 0.936133 0.673062 0.893219C0.785563 0.850305 0.905416 0.82997 1.02578 0.833374C1.14614 0.836779 1.26465 0.863857 1.37454 0.913063C1.48444 0.962268 1.58357 1.03264 1.66627 1.12015L9.45793 9.37015C9.61884 9.54035 9.7085 9.76568 9.7085 9.9999C9.7085 10.2341 9.61884 10.4595 9.45793 10.6297L1.66627 18.8806C1.58411 18.97 1.48501 19.0422 1.37471 19.093C1.26441 19.1438 1.14511 19.1722 1.02375 19.1765C0.902389 19.1808 0.78138 19.161 0.667752 19.1181C0.554126 19.0753 0.450145 19.0103 0.361852 18.9269C0.273558 18.8435 0.20271 18.7435 0.153424 18.6325C0.104138 18.5215 0.0773973 18.4018 0.0747528 18.2804C0.0721092 18.159 0.0936146 18.0383 0.138021 17.9252C0.182428 17.8122 0.248852 17.7091 0.333432 17.622L7.5311 9.9999L0.333432 2.37965Z" fill="white"/>
</svg>
