<svg width="6" height="11" viewBox="0 0 6 11" fill="none" xmlns="http://www.w3.org/2000/svg">
<path d="M5.36367 1.34338C5.40878 1.29564 5.44405 1.23949 5.46745 1.17813C5.49086 1.11676 5.50195 1.05139 5.5001 0.985738C5.49824 0.920087 5.48347 0.855445 5.45663 0.795502C5.42979 0.735559 5.39141 0.681489 5.34367 0.63638C5.29594 0.591271 5.23978 0.556006 5.17842 0.532598C5.11705 0.509191 5.05168 0.498099 4.98603 0.499956C4.92038 0.501813 4.85574 0.516583 4.79579 0.543422C4.73585 0.570262 4.68178 0.608645 4.63667 0.65638L0.386671 5.15638C0.298903 5.24921 0.25 5.37212 0.25 5.49988C0.25 5.62764 0.298903 5.75055 0.386671 5.84338L4.63667 10.3439C4.68148 10.3927 4.73554 10.4321 4.7957 10.4598C4.85587 10.4875 4.92094 10.503 4.98713 10.5053C5.05333 10.5077 5.11934 10.4968 5.18131 10.4735C5.24329 10.4501 5.30001 10.4146 5.34817 10.3692C5.39633 10.3237 5.43497 10.2691 5.46186 10.2086C5.48874 10.148 5.50333 10.0827 5.50477 10.0165C5.50621 9.95029 5.49448 9.88444 5.47026 9.82279C5.44604 9.76114 5.40981 9.70491 5.36367 9.65738L1.43767 5.49988L5.36367 1.34338Z" fill="#D1DE37"/>
</svg>
