<svg width="5" height="11" viewBox="0 0 5 11" fill="none" xmlns="http://www.w3.org/2000/svg">
<path d="M0.555634 1.68983C0.51704 1.64607 0.486869 1.5946 0.466843 1.53834C0.446816 1.48209 0.437326 1.42217 0.438915 1.36199C0.440504 1.30181 0.45314 1.24255 0.476103 1.1876C0.499065 1.13266 0.531904 1.08309 0.572745 1.04174C0.613585 1.00039 0.661627 0.968067 0.714128 0.94661C0.766629 0.925153 0.822559 0.914985 0.878727 0.916687C0.934896 0.91839 0.990201 0.931929 1.04149 0.956531C1.09277 0.981134 1.13903 1.01632 1.17762 1.06008L4.81373 5.18508C4.88882 5.27017 4.93066 5.38284 4.93066 5.49995C4.93066 5.61706 4.88882 5.72973 4.81373 5.81483L1.17762 9.94028C1.13928 9.985 1.09303 10.0211 1.04156 10.0465C0.990089 10.0719 0.934418 10.0861 0.877782 10.0883C0.821147 10.0904 0.764676 10.0805 0.71165 10.0591C0.658624 10.0376 0.6101 10.0051 0.568896 9.96346C0.527692 9.92177 0.49463 9.87173 0.47163 9.81623C0.44863 9.76074 0.436151 9.7009 0.434917 9.6402C0.433683 9.57949 0.443719 9.51913 0.464442 9.46262C0.485166 9.4061 0.516163 9.35456 0.555634 9.31099L3.91455 5.49995L0.555634 1.68983Z" fill="#272727"/>
</svg>
