<svg width="34" height="35" viewBox="0 0 34 35" fill="none" xmlns="http://www.w3.org/2000/svg">
<path fill-rule="evenodd" clip-rule="evenodd" d="M33.5468 3.14129C33.6905 2.99761 33.8045 2.82705 33.8822 2.63933C33.96 2.45161 34 2.25041 34 2.04723C34 1.84404 33.96 1.64285 33.8822 1.45513C33.8045 1.26741 33.6905 1.09685 33.5468 0.953173C33.4032 0.809499 33.2326 0.695531 33.0449 0.617776C32.8572 0.54002 32.656 0.5 32.4528 0.5C32.2496 0.5 32.0484 0.54002 31.8607 0.617776C31.673 0.695531 31.5024 0.809499 31.3587 0.953173L17 15.315L2.64129 0.953173C2.49761 0.809499 2.32705 0.695531 2.13933 0.617776C1.95161 0.54002 1.75041 0.5 1.54723 0.5C1.34404 0.5 1.14285 0.54002 0.95513 0.617776C0.767412 0.695531 0.596846 0.809499 0.453173 0.953173C0.309499 1.09685 0.195531 1.26741 0.117776 1.45513C0.0400204 1.64285 -1.51385e-09 1.84404 0 2.04723C1.51385e-09 2.25041 0.0400204 2.45161 0.117776 2.63933C0.195531 2.82705 0.309499 2.99761 0.453173 3.14129L14.815 17.5L0.453173 31.8587C0.163011 32.1489 0 32.5424 0 32.9528C0 33.3631 0.163011 33.7567 0.453173 34.0468C0.743334 34.337 1.13688 34.5 1.54723 34.5C1.95758 34.5 2.35112 34.337 2.64129 34.0468L17 19.685L31.3587 34.0468C31.6489 34.337 32.0424 34.5 32.4528 34.5C32.8631 34.5 33.2567 34.337 33.5468 34.0468C33.837 33.7567 34 33.3631 34 32.9528C34 32.5424 33.837 32.1489 33.5468 31.8587L19.185 17.5L33.5468 3.14129Z" fill="#272727"/>
</svg>
