<svg width="40" height="40" viewBox="0 0 40 40" fill="none" xmlns="http://www.w3.org/2000/svg">
<g clip-path="url(#clip0_74_566)">
<path d="M20.0001 0.799805C9.39605 0.799805 0.800049 9.39581 0.800049 19.9998C0.800049 30.6038 9.39605 39.1998 20.0001 39.1998C30.6041 39.1998 39.2001 30.6038 39.2001 19.9998C39.2001 9.39581 30.6041 0.799805 20.0001 0.799805ZM27.3841 22.4618C27.3841 22.4618 29.0821 24.1378 29.5001 24.9158C29.5121 24.9318 29.5181 24.9478 29.5221 24.9558C29.6921 25.2418 29.7321 25.4638 29.6481 25.6298C29.5081 25.9058 29.0281 26.0418 28.8641 26.0538H25.8641C25.6561 26.0538 25.2201 25.9998 24.6921 25.6358C24.2861 25.3518 23.8861 24.8858 23.4961 24.4318C22.9141 23.7558 22.4101 23.1718 21.9021 23.1718C21.8375 23.1717 21.7734 23.1818 21.7121 23.2018C21.3281 23.3258 20.8361 23.8738 20.8361 25.3338C20.8361 25.7898 20.4761 26.0518 20.2221 26.0518H18.8481C18.3801 26.0518 15.942 25.8878 13.7821 23.6098C11.138 20.8198 8.75805 15.2238 8.73805 15.1718C8.58805 14.8098 8.89805 14.6158 9.23605 14.6158H12.266C12.67 14.6158 12.8021 14.8618 12.8941 15.0798C13.0021 15.3338 13.3981 16.3438 14.0481 17.4798C15.1021 19.3318 15.7481 20.0838 16.2661 20.0838C16.3632 20.0827 16.4586 20.058 16.5441 20.0118C17.2201 19.6358 17.0941 17.2258 17.0641 16.7258C17.0641 16.6318 17.062 15.6478 16.7161 15.1758C16.4681 14.8338 16.0461 14.7038 15.7901 14.6558C15.8937 14.5128 16.0302 14.3969 16.1881 14.3178C16.6521 14.0858 17.4881 14.0518 18.3181 14.0518H18.7801C19.6801 14.0638 19.9121 14.1218 20.2381 14.2038C20.8981 14.3618 20.9121 14.7878 20.8541 16.2458C20.8361 16.6598 20.8181 17.1278 20.8181 17.6798C20.8181 17.7998 20.8121 17.9278 20.8121 18.0638C20.7921 18.8058 20.7681 19.6478 21.2921 19.9938C21.3604 20.0367 21.4394 20.0595 21.5201 20.0598C21.7021 20.0598 22.2501 20.0598 23.7341 17.5138C24.1917 16.6943 24.5894 15.8428 24.9241 14.9658C24.9541 14.9138 25.0421 14.7538 25.1461 14.6918C25.2228 14.6527 25.3079 14.6328 25.3941 14.6338H28.9561C29.3441 14.6338 29.6101 14.6918 29.6601 14.8418C29.7481 15.0798 29.6441 15.8058 28.0181 18.0078L27.2921 18.9658C25.8181 20.8978 25.8181 20.9958 27.3841 22.4618Z" fill="#D1DE37"/>
</g>
<defs>
<clipPath id="clip0_74_566">
<rect width="40" height="40" fill="white"/>
</clipPath>
</defs>
</svg>
