<svg width="40" height="40" viewBox="0 0 40 40" fill="none" xmlns="http://www.w3.org/2000/svg">
<path fill-rule="evenodd" clip-rule="evenodd" d="M20 40C31.0457 40 40 31.0457 40 20C40 8.9543 31.0457 0 20 0C8.9543 0 0 8.9543 0 20C0 31.0457 8.9543 40 20 40ZM24.9355 8.86262C26.3265 9.43718 27.5886 10.2816 28.6482 11.3466C30.8095 13.4971 32 16.3605 32 19.408C32 25.687 26.8568 30.8045 20.5462 30.8045C18.6276 30.8045 16.7437 30.3215 15.0678 29.413L9 31L10.6181 25.089C9.62412 23.364 9.09246 21.409 9.09246 19.3965C9.09246 13.1176 14.2357 8.00007 20.5462 8.00007C22.0523 7.99485 23.5444 8.28807 24.9355 8.86262ZM15.692 27.55C17.1598 28.4125 18.8357 28.8725 20.5462 28.8725C25.7935 28.8725 30.0698 24.629 30.0467 19.408C30.0514 18.1627 29.8076 16.9289 29.3294 15.778C28.8513 14.6271 28.1483 13.5821 27.2613 12.7036C25.4698 10.9096 23.0774 9.92056 20.5347 9.92056C15.2874 9.92056 11.0111 14.1755 11.0111 19.3965C11.0124 21.1782 11.517 22.9235 12.4673 24.4335L12.6985 24.79L11.7392 28.286L15.3452 27.343L15.692 27.55ZM25.3897 21.6045C25.5616 21.6878 25.6996 21.7547 25.7703 21.7885C25.8275 21.8158 25.8801 21.84 25.9284 21.8621C26.1243 21.952 26.2487 22.0091 26.3136 22.1105C26.3945 22.237 26.3945 22.8005 26.1518 23.4675C25.9206 24.1345 24.7764 24.744 24.2216 24.8245C23.7246 24.8935 23.1005 24.928 22.4186 24.7095C22.0025 24.583 21.4709 24.4105 20.7889 24.1115C18.0486 22.9351 16.2062 20.2556 15.9283 19.8515C15.9156 19.8329 15.9061 19.8191 15.9 19.8105L15.8978 19.8076C15.7506 19.6124 14.7327 18.2622 14.7327 16.8665C14.7327 15.5721 15.3623 14.8846 15.6595 14.5602C15.6844 14.5329 15.707 14.5083 15.7266 14.486C15.9925 14.1986 16.293 14.1296 16.4894 14.1296H17.0442C17.0643 14.1309 17.0853 14.1311 17.1071 14.1314C17.2736 14.1334 17.4871 14.136 17.6915 14.624C17.9226 15.199 18.5005 16.602 18.5698 16.74C18.6392 16.878 18.6854 17.039 18.593 17.2345C18.5851 17.2502 18.5774 17.2655 18.57 17.2804C18.4901 17.4404 18.4309 17.5588 18.304 17.706C18.2597 17.7575 18.2131 17.8136 18.166 17.8702C18.0655 17.991 17.9629 18.1144 17.8764 18.2005C17.7261 18.35 17.5874 18.4995 17.7492 18.787C17.9226 19.0745 18.4889 20.006 19.3442 20.765C20.2732 21.591 21.0838 21.9377 21.4799 22.1072C21.5471 22.1359 21.6023 22.1595 21.6442 22.1795C21.9332 22.329 22.1065 22.306 22.2683 22.1105C22.4301 21.9265 22.9734 21.2825 23.1698 20.995C23.3663 20.719 23.5513 20.765 23.8171 20.857C24.0091 20.9352 24.86 21.3477 25.3897 21.6045Z" fill="#D1DE37"/>
</svg>
