<svg width="256" height="55" viewBox="0 0 256 55" fill="none" xmlns="http://www.w3.org/2000/svg">
<path d="M22.9994 35.4856H23.5865V35.4411L23.5796 35.3971L22.9994 35.4856ZM26.2016 35.4856L25.6371 35.3257L25.6145 35.4041V35.4856H26.2016ZM24.0134 33.1049C24.0134 33.4263 24.2763 33.6869 24.6005 33.6869C24.9247 33.6869 25.1875 33.4263 25.1875 33.1049H24.0134ZM1.36673 13.1095C5.26456 14.9831 10.9734 17.9316 15.7001 21.2823C18.0647 22.9585 20.1609 24.7197 21.6603 26.4805C23.1685 28.2516 24.0134 29.9523 24.0134 31.5176H25.1875C25.1875 29.5481 24.1368 27.5844 22.5575 25.7298C20.9695 23.8649 18.7863 22.0391 16.3832 20.3356C11.5744 16.9267 5.79443 13.9442 1.87902 12.0621L1.36673 13.1095ZM25.1875 31.5176C25.1875 30.3967 25.6755 29.1857 26.4974 27.9531C27.3152 26.7269 28.4305 25.5289 29.6055 24.4463C31.9552 22.2814 34.479 20.6369 35.1486 20.2135L34.5172 19.2322C33.8247 19.6701 31.2323 21.3585 28.8062 23.5937C27.5935 24.7109 26.406 25.9796 25.5181 27.3113C24.6342 28.6366 24.0134 30.0743 24.0134 31.5176H25.1875ZM35.2412 19.0393L28.1141 12.6807L27.3287 13.5458L34.4557 19.9045L35.2412 19.0393ZM27.6603 13.3843L37.9129 17.7402L38.3755 16.6704L28.1229 12.3145L27.6603 13.3843ZM38.5204 17.7319L48.5503 13.1429L48.0583 12.0861L38.0284 16.675L38.5204 17.7319ZM48.5542 11.7998L23.3114 0.0700159L22.8132 1.12391L48.056 12.8537L48.5542 11.7998ZM22.7169 0.052979L19.0213 1.51835L19.4573 2.59903L23.1529 1.13366L22.7169 0.052979ZM18.8067 2.76348L24.4156 7.62851L25.1887 6.75257L19.5799 1.88753L18.8067 2.76348ZM24.8316 6.90846L16.043 4.00436L15.6718 5.10856L24.4605 8.01265L24.8316 6.90846ZM15.4726 4.04456L10.9274 6.29743L11.4524 7.33847L15.9978 5.0856L15.4726 4.04456ZM10.7331 7.48366L16.3456 13.0474L17.1759 12.2244L11.5634 6.66063L10.7331 7.48366ZM16.8266 12.3638L7.31896 8.01386L6.82693 9.07066L16.3344 13.4205L16.8266 12.3638ZM6.57157 8.08365L1.26329 11.8423L1.94574 12.7894L7.25402 9.03077L6.57157 8.08365ZM1.35753 17.0641C4.69733 18.5408 9.68817 21.2149 13.9919 24.5246C16.1434 26.1791 18.1083 27.9811 19.6087 29.8594C21.1115 31.7408 22.1232 33.6674 22.4191 35.574L23.5796 35.3971C23.2419 33.2203 22.1044 31.1089 20.5292 29.1369C18.9514 27.1617 16.9095 25.2951 14.7116 23.6049C10.317 20.2253 5.24018 17.5064 1.83581 16.0011L1.35753 17.0641ZM22.4123 35.4856V54.2581H23.5865V35.4856H22.4123ZM23.0511 53.8908L0.959001 41.3764L0.37647 42.3869L22.4685 54.9014L23.0511 53.8908ZM1.17393 41.7571L1.96404 16.6926L0.790484 16.6563L0.000366842 41.7207L1.17393 41.7571ZM48.1715 15.9937C44.8928 17.37 39.9329 19.934 35.4656 23.2677C31.0187 26.586 26.9584 30.7413 25.6371 35.3257L26.766 35.6455C27.978 31.4406 31.774 27.4792 36.1718 24.1975C40.5491 20.9311 45.4221 18.4118 48.6294 17.0655L48.1715 15.9937ZM25.6145 35.4856V54.2581H26.7886V35.4856H25.6145ZM26.7324 54.9014L48.8274 42.3853L48.2448 41.3748L26.1499 53.8908L26.7324 54.9014ZM49.2038 41.7421V34.9723H48.0297V41.7421H49.2038ZM48.0722 34.3372L32.7889 43.4276L33.393 44.4257L48.6763 35.3353L48.0722 34.3372ZM33.1929 43.6545V38.3916H32.0188V43.6545H33.1929ZM36.7946 32.0857L48.8412 24.9206L48.2371 23.9225L36.1905 31.0877L36.7946 32.0857ZM49.2038 24.2855V16.6775H48.0297V24.2855H49.2038ZM7.20196 27.8463V38.5688H8.37609V27.8463H7.20196ZM7.57266 39.2085L16.859 44.5785L17.4506 43.5731L8.16428 38.2032L7.57266 39.2085ZM17.9826 43.9387V38.1456H16.8085V43.9387H17.9826ZM14.1564 31.0583L8.3636 27.23L7.71231 28.1985L13.5051 32.0268L14.1564 31.0583ZM24.0134 31.5176V33.1049H25.1875V31.5176H24.0134ZM17.9826 38.1456C17.9826 35.2976 16.5468 32.638 14.1564 31.0583L13.5051 32.0268C15.5689 33.3906 16.8085 35.6868 16.8085 38.1456H17.9826ZM16.859 44.5785C17.3571 44.8665 17.9826 44.5104 17.9826 43.9387H16.8085C16.8085 43.6121 17.166 43.4086 17.4506 43.5731L16.859 44.5785ZM7.20196 38.5688C7.20196 38.8322 7.34312 39.0759 7.57266 39.2085L8.16428 38.2032C8.29544 38.279 8.37609 38.4182 8.37609 38.5688H7.20196ZM48.8412 24.9206C49.0661 24.7867 49.2038 24.5457 49.2038 24.2855H48.0297C48.0297 24.1368 48.1083 23.9991 48.2371 23.9225L48.8412 24.9206ZM32.7889 43.4276C32.9667 43.3217 33.1929 43.4487 33.1929 43.6545H32.0188C32.0188 44.3535 32.7881 44.7854 33.393 44.4257L32.7889 43.4276ZM49.2038 34.9723C49.2038 34.3966 48.5702 34.041 48.0722 34.3372L48.6763 35.3353C48.3918 35.5045 48.0297 35.3014 48.0297 34.9723H49.2038ZM48.8274 42.3853C49.0601 42.2534 49.2038 42.0079 49.2038 41.7421H48.0297C48.0297 41.5904 48.1119 41.4501 48.2448 41.3748L48.8274 42.3853ZM25.6145 54.2581C25.6145 54.8269 26.2343 55.1835 26.7324 54.9014L26.1499 53.8908C26.4345 53.7294 26.7886 53.9333 26.7886 54.2581H25.6145ZM48.6294 17.0655C48.3154 17.1972 48.0297 16.9461 48.0297 16.6775H49.2038C49.2038 16.1825 48.6957 15.7736 48.1715 15.9937L48.6294 17.0655ZM0.959001 41.3764C1.09618 41.4541 1.17886 41.6006 1.17393 41.7571L0.000366842 41.7207C-0.0082777 41.9947 0.136405 42.2509 0.37647 42.3869L0.959001 41.3764ZM22.4123 54.2581C22.4123 53.9333 22.7665 53.7294 23.0511 53.8908L22.4685 54.9014C22.9667 55.1835 23.5865 54.8269 23.5865 54.2581H22.4123ZM1.83581 16.0011C1.32072 15.7734 0.806012 16.1639 0.790484 16.6563L1.96404 16.6926C1.95562 16.9602 1.66539 17.2003 1.35753 17.0641L1.83581 16.0011ZM7.31896 8.01386C7.07527 7.90235 6.78997 7.92901 6.57157 8.08365L7.25402 9.03077C7.12922 9.11914 6.9662 9.13437 6.82693 9.07066L7.31896 8.01386ZM10.9274 6.29743C10.4713 6.52352 10.3725 7.12617 10.7331 7.48366L11.5634 6.66063C11.7694 6.86491 11.7131 7.20928 11.4524 7.33847L10.9274 6.29743ZM16.043 4.00436C15.8551 3.94225 15.6499 3.95669 15.4726 4.04456L15.9978 5.0856C15.8963 5.1358 15.7792 5.14406 15.6718 5.10856L16.043 4.00436ZM24.4156 7.62851C24.0646 7.3242 24.3894 6.76233 24.8316 6.90846L24.4605 8.01265C25.2342 8.26838 25.8026 7.28508 25.1887 6.75257L24.4156 7.62851ZM19.0213 1.51835C18.5032 1.72378 18.3868 2.39924 18.8067 2.76348L19.5799 1.88753C19.8199 2.09567 19.7534 2.48165 19.4573 2.59903L19.0213 1.51835ZM23.3114 0.0700159C23.1242 -0.0170023 22.9088 -0.0231711 22.7169 0.052979L23.1529 1.13366C23.0431 1.17717 22.9201 1.17364 22.8132 1.12391L23.3114 0.0700159ZM37.9129 17.7402C38.1075 17.8228 38.3283 17.8198 38.5204 17.7319L38.0284 16.675C38.1382 16.6248 38.2643 16.6231 38.3755 16.6704L37.9129 17.7402ZM28.1141 12.6807C28.4731 13.0009 28.1041 13.5729 27.6603 13.3843L28.1229 12.3145C27.3462 11.9846 26.7006 12.9855 27.3287 13.5458L28.1141 12.6807ZM8.37609 27.8463C8.37609 28.1844 7.99604 28.3859 7.71231 28.1985L8.3636 27.23C7.86706 26.9019 7.20196 27.2547 7.20196 27.8463H8.37609ZM35.1486 20.2135C35.5968 19.9302 35.5812 19.3428 35.2412 19.0393L34.4557 19.9045C34.2746 19.7429 34.2493 19.4015 34.5172 19.2322L35.1486 20.2135ZM48.5503 13.1429C49.1272 12.879 49.1296 12.0671 48.5542 11.7998L48.056 12.8537C47.7272 12.7009 47.7287 12.237 48.0583 12.0861L48.5503 13.1429ZM16.3456 13.0474C16.0086 12.7132 16.3936 12.1658 16.8266 12.3638L16.3344 13.4205C17.0919 13.7672 17.7659 12.8092 17.1759 12.2244L16.3456 13.0474ZM33.1929 38.3916C33.1929 35.8084 34.5602 33.4148 36.7946 32.0857L36.1905 31.0877C33.6024 32.627 32.0188 35.3996 32.0188 38.3916H33.1929ZM1.87902 12.0621C2.20067 12.2168 2.18162 12.6224 1.94574 12.7894L1.26329 11.8423C0.829436 12.1495 0.826178 12.8496 1.36673 13.1095L1.87902 12.0621Z" fill="white"/>
<path d="M63.0378 34.398L58.6673 19.6437H61.487L64.1052 29.9457L66.6429 19.6437H68.6569L71.1543 29.9457L73.7926 19.6437H76.6123L72.262 34.398H70.0667L67.67 24.635L65.2129 34.398H63.0378Z" fill="white"/>
<path d="M78.2847 34.398V19.6437H86.2803V22.2591H81.0439V25.7331H86.0588V28.3485H81.0439V31.7825H86.2803V34.398H78.2847Z" fill="white"/>
<path d="M87.7992 30.1853H90.6792C90.8001 31.4232 91.4647 32.0221 92.6933 32.0221C93.8815 32.0221 94.7073 31.2834 94.7073 30.2253C94.7073 29.5864 94.4656 29.0673 93.9621 28.6879C93.519 28.3685 93.4183 28.3086 91.4446 27.5898C89.4305 26.8511 88.343 25.4336 88.343 23.5768C88.343 21.2409 90.2563 19.3841 92.6731 19.3841C94.1031 19.3841 95.4323 20.0031 96.2379 21.0612C96.7817 21.78 97.0234 22.4987 97.0838 23.5768H94.2239C94.1434 22.5786 93.5794 22.0196 92.653 22.0196C91.7467 22.0196 91.1223 22.6385 91.1223 23.5169C91.1223 24.076 91.4244 24.5352 91.9884 24.8746C92.1696 24.9944 92.23 25.0143 93.5996 25.5135C95.0698 26.0725 95.533 26.3121 96.1171 26.8511C97.0033 27.6497 97.4464 28.6879 97.4464 29.9258C97.4464 32.6011 95.3719 34.6575 92.6933 34.6575C91.0619 34.6575 89.5715 33.9587 88.7055 32.7808C88.1214 32.0022 87.8798 31.3034 87.7992 30.1853Z" fill="white"/>
<path d="M100.879 34.398V22.2591H98.1193V19.6437H106.397V22.2591H103.638V34.398H100.879Z" fill="white"/>
<path d="M113.609 34.398V19.6437H117.012C119.449 19.6437 121.242 20.023 122.45 20.8017C124.424 22.0595 125.532 24.3156 125.532 27.0508C125.532 30.1055 124.122 32.5412 121.766 33.6393C120.577 34.1784 119.268 34.398 117.073 34.398H113.609ZM116.368 31.7825H116.972C118.624 31.7825 119.772 31.5629 120.597 31.1237C121.927 30.4049 122.752 28.8277 122.752 27.0508C122.752 25.1142 121.846 23.5169 120.376 22.7982C119.53 22.3989 118.624 22.2591 116.912 22.2591H116.368V31.7825Z" fill="white"/>
<path d="M127.691 34.398V19.6437H135.687V22.2591H130.45V25.7331H135.465V28.3485H130.45V31.7825H135.687V34.398H127.691Z" fill="white"/>
<path d="M138.253 34.398V19.6437H141.395L147.558 30.385V19.6437H150.317V34.398H147.235L141.012 23.6767V34.398H138.253Z" fill="white"/>
<path d="M154.651 34.398V22.2591H151.892V19.6437H160.17V22.2591H157.411V34.398H154.651Z" fill="white"/>
<path d="M159.543 34.398L165.746 19.6437H167.921L174.165 34.398H171.124L169.533 30.5846H164.236L162.584 34.398H159.543ZM165.243 27.9692H168.425L166.834 23.497L165.243 27.9692Z" fill="white"/>
<path d="M175.74 34.398V19.6437H178.5V31.7825H183.051V34.398H175.74Z" fill="white"/>
<path d="M201.286 30.2851H204.528C203.36 32.9804 200.722 34.6575 197.661 34.6575C193.31 34.6575 189.826 31.2435 189.826 26.9709C189.826 22.7982 193.27 19.3841 197.479 19.3841C199.352 19.3841 201.145 20.023 202.535 21.181C203.481 21.9796 203.964 22.6385 204.528 23.8763H201.447C200.44 22.5786 199.272 22.0196 197.54 22.0196C196.009 22.0196 194.74 22.5786 193.834 23.6367C193.069 24.5152 192.605 25.793 192.605 26.9909C192.605 29.7461 194.841 32.0221 197.6 32.0221C199.03 32.0221 200.057 31.543 201.286 30.2851Z" fill="white"/>
<path d="M206.679 34.398V19.6437H209.438V31.7825H213.989V34.398H206.679Z" fill="white"/>
<path d="M215.824 34.398V19.6437H218.583V34.398H215.824Z" fill="white"/>
<path d="M221.449 34.398V19.6437H224.591L230.754 30.385V19.6437H233.513V34.398H230.432L224.209 23.6767V34.398H221.449Z" fill="white"/>
<path d="M236.377 34.398V19.6437H239.137V34.398H236.377Z" fill="white"/>
<path d="M252.757 30.2851H256C254.832 32.9804 252.194 34.6575 249.132 34.6575C244.782 34.6575 241.298 31.2435 241.298 26.9709C241.298 22.7982 244.742 19.3841 248.951 19.3841C250.824 19.3841 252.616 20.023 254.006 21.181C254.953 21.9796 255.436 22.6385 256 23.8763H252.919C251.912 22.5786 250.743 22.0196 249.011 22.0196C247.481 22.0196 246.212 22.5786 245.306 23.6367C244.54 24.5152 244.077 25.793 244.077 26.9909C244.077 29.7461 246.313 32.0221 249.072 32.0221C250.502 32.0221 251.529 31.543 252.757 30.2851Z" fill="white"/>
</svg>
