<?xml version="1.0" standalone="no"?>
<!DOCTYPE svg PUBLIC "-//W3C//DTD SVG 20010904//EN"
 "http://www.w3.org/TR/2001/REC-SVG-20010904/DTD/svg10.dtd">
<svg version="1.0" xmlns="http://www.w3.org/2000/svg"
 width="1024.000000pt" height="1024.000000pt" viewBox="0 0 1024.000000 1024.000000"
 preserveAspectRatio="xMidYMid meet">
<metadata>
Created by potrace 1.14, written by Peter Selinger 2001-2017
</metadata>
<g transform="translate(0.000000,1024.000000) scale(0.100000,-0.100000)"
fill="#000000" stroke="none">
<path d="M3788 9115 c-3 -4 -57 -12 -119 -20 -146 -18 -239 -34 -264 -45 -11
-5 -38 -12 -60 -15 -22 -4 -44 -10 -50 -15 -5 -4 -23 -10 -40 -13 -30 -5 -139
-44 -205 -73 -19 -8 -44 -19 -55 -23 -72 -30 -259 -130 -263 -142 -2 -5 -9 -9
-15 -9 -13 0 -142 -84 -165 -107 -8 -7 -27 -20 -43 -28 -16 -9 -29 -20 -29
-25 0 -6 -5 -10 -11 -10 -7 0 -21 -10 -33 -22 -11 -13 -41 -39 -65 -57 -49
-39 -201 -190 -201 -200 0 -4 -18 -26 -40 -50 -22 -23 -40 -45 -40 -47 0 -3
-25 -39 -55 -79 -30 -41 -55 -77 -55 -79 0 -3 -10 -16 -22 -30 -13 -13 -34
-46 -48 -73 -14 -26 -27 -50 -30 -53 -20 -20 -136 -256 -165 -335 -10 -27 -22
-54 -27 -60 -4 -5 -8 -15 -8 -23 0 -8 -6 -28 -14 -45 -8 -18 -19 -50 -24 -72
-6 -22 -18 -67 -27 -100 -10 -33 -21 -80 -25 -105 -4 -25 -13 -72 -18 -105
-29 -167 -34 -240 -29 -465 5 -231 17 -348 51 -495 10 -38 20 -86 23 -105 3
-19 9 -39 13 -45 4 -5 11 -26 15 -45 4 -19 11 -39 15 -45 4 -5 11 -26 15 -45
4 -19 11 -41 16 -50 4 -8 15 -33 24 -55 9 -22 22 -53 29 -70 8 -16 22 -50 32
-75 10 -25 21 -47 24 -50 3 -3 13 -21 24 -40 57 -109 143 -249 176 -287 5 -7
10 -16 10 -22 0 -5 3 -11 8 -13 4 -1 25 -25 47 -53 22 -27 43 -51 47 -53 5 -2
8 -8 8 -13 0 -5 7 -17 14 -26 34 -41 126 -175 126 -183 0 -4 4 -10 9 -12 10
-4 52 -75 92 -158 100 -210 94 -196 151 -355 45 -125 69 -202 93 -295 9 -36
23 -87 31 -114 8 -26 14 -63 14 -80 0 -18 3 -36 8 -40 4 -4 13 -42 19 -84 26
-161 45 -290 53 -359 4 -39 11 -80 14 -90 3 -10 10 -54 15 -98 17 -133 39
-276 57 -355 9 -41 20 -95 24 -120 18 -105 57 -267 69 -290 5 -9 12 -36 16
-60 4 -25 11 -49 15 -55 4 -5 11 -27 14 -49 4 -21 11 -46 16 -55 5 -9 28 -68
51 -131 64 -176 178 -418 202 -428 4 -2 7 -8 7 -13 0 -18 111 -160 175 -223
69 -69 179 -146 241 -172 22 -8 48 -19 59 -24 40 -17 169 -40 229 -40 72 0
236 50 236 71 0 5 5 9 11 9 20 0 126 95 164 147 21 29 42 53 47 53 4 0 8 5 8
10 0 6 5 16 11 23 42 49 162 268 219 402 5 11 18 43 30 70 11 28 25 58 30 67
6 10 10 23 10 29 0 6 6 25 14 42 7 18 21 51 30 75 9 23 23 61 32 85 9 23 23
58 31 77 27 65 31 75 47 118 37 96 49 129 62 159 8 17 14 38 14 47 0 9 5 16
10 16 6 0 10 7 10 16 0 9 6 30 14 47 7 18 21 52 30 77 33 87 61 134 97 163 32
25 45 29 100 28 35 0 65 -5 67 -10 2 -6 8 -11 13 -11 14 0 49 -33 49 -46 0 -7
4 -14 9 -16 4 -1 18 -32 31 -68 30 -84 75 -211 83 -230 3 -8 15 -42 26 -75 35
-104 44 -129 58 -162 7 -17 13 -40 13 -52 0 -12 4 -21 9 -21 5 0 12 -18 16
-40 4 -22 11 -42 16 -46 5 -3 9 -12 9 -21 0 -8 6 -29 14 -46 7 -18 21 -52 31
-77 28 -72 54 -133 102 -240 43 -95 57 -123 96 -188 20 -34 37 -64 37 -67 0
-4 55 -87 75 -112 82 -105 136 -165 165 -181 19 -12 44 -29 55 -40 37 -34 153
-74 234 -79 116 -8 297 45 388 113 17 13 34 24 37 24 16 0 152 131 201 193 17
21 38 48 47 59 10 11 20 29 23 39 4 11 11 19 16 19 5 0 9 6 9 14 0 8 6 21 13
28 21 23 43 66 121 229 20 42 36 83 36 92 0 9 5 19 10 22 6 3 10 14 10 23 0 9
7 30 15 45 8 15 17 43 21 62 3 19 10 35 14 35 4 0 10 15 14 32 3 18 13 58 22
88 9 30 20 73 26 95 5 22 13 49 18 60 8 20 27 105 56 250 8 44 20 96 25 115
15 57 51 281 69 430 6 47 15 98 20 114 6 16 10 47 10 70 0 23 5 61 11 86 6 25
14 72 19 105 12 85 37 219 55 295 49 203 57 234 66 252 5 10 9 26 9 35 0 10 6
30 14 45 8 15 17 41 21 59 4 19 11 40 15 49 20 41 40 92 40 103 0 7 14 39 30
72 16 33 30 66 30 73 0 6 4 12 9 12 5 0 12 13 16 30 4 16 11 30 16 30 5 0 9 6
9 14 0 12 87 174 100 186 3 3 28 39 55 80 28 41 55 80 60 87 6 7 16 19 23 27
6 8 12 17 12 20 0 2 20 35 45 73 25 37 45 74 45 81 0 6 3 12 8 12 4 0 16 19
27 43 11 23 23 44 26 47 3 3 25 46 49 95 39 84 52 114 93 205 20 46 86 236 97
280 5 19 16 62 25 95 105 385 118 846 35 1300 -6 33 -15 67 -19 75 -5 9 -12
36 -16 60 -4 24 -11 51 -15 60 -4 8 -15 40 -24 70 -18 59 -43 125 -57 152 -5
10 -9 23 -9 29 0 12 -121 260 -131 269 -3 3 -9 12 -13 20 -17 37 -89 144 -98
148 -5 2 -8 9 -8 16 0 6 -13 26 -30 44 -16 18 -30 35 -30 38 0 8 -73 87 -180
194 -195 196 -457 357 -710 435 -169 52 -196 58 -375 80 -181 23 -466 16 -600
-15 -22 -5 -76 -16 -120 -25 -44 -9 -96 -23 -115 -30 -19 -7 -62 -21 -95 -30
-33 -10 -68 -21 -77 -26 -10 -5 -23 -9 -28 -9 -6 0 -32 -9 -58 -21 -26 -11
-58 -25 -72 -31 -71 -29 -94 -40 -202 -92 -64 -31 -121 -56 -127 -56 -5 0 -11
-3 -13 -7 -1 -5 -32 -22 -66 -40 -51 -26 -67 -30 -78 -20 -8 7 -20 17 -27 22
-7 6 -46 33 -87 60 -41 28 -77 52 -80 55 -16 17 -147 100 -157 100 -7 0 -13 4
-13 9 0 5 -10 13 -22 17 -13 4 -25 9 -28 13 -8 9 -38 27 -120 68 -41 21 -77
41 -80 44 -3 3 -33 16 -68 28 -34 13 -65 28 -68 32 -3 5 -13 9 -23 9 -10 0
-32 7 -47 15 -16 8 -39 15 -51 15 -12 0 -24 4 -27 9 -4 5 -25 12 -49 16 -23 3
-51 10 -62 15 -44 19 -241 40 -373 40 -76 0 -141 -2 -144 -5z m372 -381 c96
-17 176 -37 186 -47 4 -4 14 -7 22 -7 31 0 307 -136 407 -201 17 -10 38 -22
48 -25 9 -4 17 -10 17 -15 0 -5 4 -9 10 -9 5 0 36 -19 69 -42 32 -24 68 -50
81 -58 12 -8 28 -20 34 -25 6 -6 27 -20 46 -32 19 -12 44 -30 55 -40 11 -10
43 -33 71 -51 43 -27 60 -32 111 -32 63 0 55 -3 238 96 171 93 480 234 512
234 7 0 27 6 45 14 45 19 105 38 153 48 232 52 277 57 460 57 186 0 392 -25
419 -50 6 -5 20 -9 32 -9 55 0 370 -144 426 -194 13 -12 40 -32 60 -46 21 -14
38 -28 38 -32 0 -5 4 -8 10 -8 14 0 170 -156 213 -211 19 -26 45 -58 57 -72
25 -29 46 -63 56 -89 3 -10 10 -18 15 -18 5 0 9 -6 9 -14 0 -8 6 -21 13 -28 6
-7 21 -31 32 -53 11 -22 23 -41 28 -43 4 -2 7 -9 7 -15 0 -7 14 -39 30 -71 17
-32 30 -63 30 -68 0 -6 6 -24 14 -41 33 -74 89 -258 107 -347 10 -53 15 -87
38 -235 24 -160 7 -599 -29 -720 -4 -16 -11 -50 -15 -75 -4 -25 -11 -58 -15
-75 -5 -16 -17 -57 -26 -90 -31 -109 -48 -158 -113 -320 -19 -47 -109 -225
-142 -280 -19 -33 -38 -67 -42 -75 -8 -17 -30 -53 -37 -60 -3 -3 -27 -39 -55
-80 -27 -41 -54 -80 -60 -86 -5 -6 -19 -27 -30 -47 -11 -20 -23 -37 -27 -37
-5 0 -8 -7 -8 -15 0 -8 -4 -15 -9 -15 -5 0 -13 -10 -17 -22 -4 -13 -9 -25 -13
-28 -16 -13 -139 -256 -153 -301 -6 -22 -15 -39 -20 -39 -4 0 -8 -7 -8 -16 0
-9 -7 -32 -16 -52 -9 -21 -22 -52 -30 -70 -8 -18 -14 -39 -14 -47 0 -9 -4 -23
-9 -33 -9 -16 -57 -168 -86 -272 -13 -46 -39 -162 -50 -215 -3 -16 -12 -66
-21 -110 -16 -84 -42 -246 -50 -305 -4 -35 -23 -161 -49 -325 -8 -49 -17 -106
-19 -125 -3 -19 -12 -73 -21 -120 -9 -47 -20 -107 -25 -133 -5 -26 -12 -56
-15 -67 -3 -11 -10 -41 -15 -67 -4 -26 -22 -100 -40 -163 -17 -63 -35 -135
-41 -159 -5 -24 -13 -49 -18 -55 -4 -6 -11 -22 -14 -36 -6 -29 -50 -149 -73
-200 -46 -99 -100 -207 -111 -218 -7 -7 -13 -19 -13 -27 0 -7 -4 -15 -8 -17
-4 -1 -30 -32 -57 -68 -27 -36 -56 -70 -65 -76 -8 -7 -31 -26 -50 -43 -19 -17
-39 -31 -44 -31 -5 0 -17 -6 -25 -13 -9 -8 -43 -22 -77 -31 -59 -18 -61 -18
-100 2 -60 30 -146 127 -198 222 -11 19 -22 37 -25 40 -9 8 -71 138 -71 150 0
5 -4 10 -9 10 -5 0 -12 14 -16 30 -4 17 -11 30 -16 30 -5 0 -9 7 -9 16 0 9 -6
30 -14 47 -7 18 -28 68 -46 112 -17 44 -36 88 -41 97 -5 10 -9 23 -9 29 0 6
-6 25 -14 42 -8 18 -16 41 -19 52 -7 26 -27 82 -44 122 -7 17 -13 38 -13 46 0
9 -4 18 -9 21 -5 4 -12 24 -16 46 -4 22 -11 40 -16 40 -5 0 -9 9 -9 21 0 12
-6 35 -13 52 -14 34 -26 65 -58 162 -38 114 -100 225 -159 284 -53 52 -167
121 -201 121 -8 0 -21 6 -27 13 -18 17 -276 17 -293 0 -7 -7 -22 -13 -33 -13
-12 -1 -39 -12 -61 -25 -22 -14 -47 -28 -55 -31 -8 -4 -45 -37 -81 -74 -47
-46 -78 -89 -103 -142 -20 -41 -36 -80 -36 -87 0 -6 -4 -19 -10 -29 -9 -17
-23 -50 -55 -132 -9 -25 -21 -54 -26 -65 -5 -11 -18 -45 -29 -75 -11 -30 -24
-64 -29 -75 -5 -11 -17 -40 -26 -65 -10 -25 -24 -59 -31 -77 -8 -17 -14 -37
-14 -45 0 -8 -4 -18 -8 -23 -5 -6 -17 -32 -27 -60 -9 -27 -23 -63 -30 -80 -7
-16 -20 -50 -30 -75 -31 -79 -64 -156 -101 -236 -13 -28 -24 -56 -24 -62 0 -7
-4 -12 -9 -12 -5 0 -13 -10 -17 -22 -8 -27 -65 -122 -76 -126 -4 -2 -8 -8 -8
-14 0 -12 -59 -87 -94 -120 -12 -11 -39 -29 -61 -40 -35 -18 -45 -19 -89 -9
-124 29 -217 102 -317 249 -55 79 -109 179 -109 199 0 7 -4 13 -10 13 -5 0
-10 6 -10 13 0 6 -6 24 -14 39 -8 15 -17 40 -21 57 -4 17 -11 33 -16 36 -5 4
-9 15 -9 25 0 17 -6 35 -42 115 -10 24 -24 71 -43 140 -7 28 -21 77 -30 110
-27 93 -33 123 -81 362 -19 99 -42 246 -54 345 -5 43 -11 86 -14 95 -3 10 -10
54 -16 98 -14 115 -36 256 -55 360 -9 50 -20 111 -25 136 -8 45 -23 104 -40
164 -5 17 -12 48 -16 70 -3 22 -10 45 -14 50 -5 6 -11 28 -15 50 -4 22 -11 45
-15 50 -5 6 -11 27 -15 48 -4 20 -11 40 -16 43 -5 3 -9 13 -9 22 0 21 -78 225
-115 302 -60 126 -90 185 -96 190 -3 3 -8 13 -12 23 -9 24 -119 191 -129 195
-4 2 -8 8 -8 13 0 9 -166 239 -180 249 -12 9 -100 141 -100 151 0 5 -4 9 -9 9
-5 0 -13 10 -17 23 -4 12 -10 24 -13 27 -6 4 -120 236 -141 285 -14 33 -62
178 -71 215 -5 19 -16 64 -25 100 -42 171 -69 563 -46 674 6 28 15 85 21 126
12 91 26 169 40 213 5 17 17 59 27 92 9 33 23 74 31 92 7 17 13 35 13 40 0 6
6 23 14 39 8 16 35 72 60 124 56 116 98 194 109 198 4 2 7 8 7 13 0 8 70 109
100 146 5 7 10 15 10 19 0 7 54 77 90 115 14 15 41 44 61 65 57 62 161 158
199 184 19 14 37 27 40 30 18 19 90 70 98 70 6 0 12 4 14 8 8 20 268 162 296
162 7 0 12 4 12 9 0 5 10 11 23 14 12 3 47 15 77 27 30 12 64 24 75 27 11 2
29 8 40 13 47 20 213 57 315 71 216 29 329 30 480 3z"/>
</g>
</svg>
